<?xml version="1.0" encoding="iso-8859-1"?>
<!-- Uploaded to: SVG Repo, www.svgrepo.com, Generator: SVG Repo Mixer Tools -->
<svg version="1.1" id="Layer_1" xmlns="http://www.w3.org/2000/svg" xmlns:xlink="http://www.w3.org/1999/xlink" 
	 viewBox="0 0 512 512" xml:space="preserve">
<path style="fill:#CC7400;" d="M275.339,7.545H21.083c-7.476,0-13.537,6.061-13.537,13.537v72.694v1.078v300.733v1.078v94.252
	c0,7.476,6.061,13.537,13.537,13.537h254.256c7.476,0,13.537-6.061,13.537-13.537v-94.252v-1.078V94.855v-1.078V21.083
	C288.876,13.606,282.815,7.545,275.339,7.545z"/>
<rect id="SVGCleanerId_0" x="7.545" y="93.777" style="fill:#ECE5DD;" width="281.331" height="302.888"/>
<g>
	<rect id="SVGCleanerId_0_1_" x="7.545" y="93.777" style="fill:#ECE5DD;" width="281.331" height="302.888"/>
</g>
<g>
	<path style="fill:#AA6101;" d="M39.343,66.287c0-32.391,26.351-58.742,58.742-58.742H21.083c-7.476,0-13.537,6.061-13.537,13.537
		v72.694h31.798V66.287z"/>
	<path style="fill:#AA6101;" d="M39.343,445.713v-49.047H7.545v94.252c0,7.476,6.061,13.537,13.537,13.537h77.003
		C65.694,504.455,39.343,478.103,39.343,445.713z"/>
</g>
<rect x="7.545" y="93.777" style="fill:#D9CBBD;" width="31.798" height="302.888"/>
<path style="fill:#ED8800;" d="M408.368,321.202c-38.096,0.551-72.307-20.467-89.064-54.586l-60.788-34.736
	c-6.359-3.634-6.359-12.801,0-16.435l60.788-34.736c16.542-33.679,50.094-54.595,87.602-54.595c55.114,0,99.7,45.943,97.47,101.542
	C502.31,279.142,459.89,320.456,408.368,321.202z"/>
<path style="fill:#CC7400;" d="M406.905,288.876c-35.959,0-65.213-29.254-65.213-65.213c0-25.674,32.622-53.148,52.069-67.238
	l5.436-3.939c3.436-2.49,8.247-0.035,8.247,4.209v23.852c0,23.477,16.683,42.577,37.187,42.577c5.167,0,10.176-1.196,14.887-3.556
	l5.329-2.67c3.586-1.796,7.768,0.973,7.515,4.976l-0.376,5.949C469.82,262.058,441.233,288.876,406.905,288.876z"/>
<path style="fill:#FFA733;" d="M406.905,269.474c-25.26,0-45.811-20.55-45.811-45.811c0-6.806,6.531-19.204,23.619-34.964
	c1.42-1.31,3.733-0.479,4.004,1.434c4.22,29.64,27.687,52.393,55.914,52.393c0.014,0,0.027,0,0.041,0
	c1.879-0.001,3.066,1.989,2.14,3.623C438.913,260.106,423.912,269.474,406.905,269.474z"/>
<path style="fill:#FEC377;" d="M406.905,256.539c-17.997,0-32.661-14.534-32.874-32.482c-0.004-0.318,0.019-0.638,0.095-0.947
	c0.276-1.141,1.131-3.202,2.92-6.073c1.651-2.648,5.601-2.523,7.057,0.237c7.064,13.392,17.845,24.218,30.735,30.877
	c3.431,1.773,2.732,6.841-1.043,7.654C411.557,256.288,409.25,256.539,406.905,256.539z"/>
<g>
	<path style="fill:#AA6101;" d="M148.211,420.379c-16.345,0-29.642,13.297-29.642,29.642c0,16.345,13.297,29.642,29.642,29.642
		s29.642-13.297,29.642-29.642C177.853,433.676,164.556,420.379,148.211,420.379z M148.211,463.495
		c-7.43,0-13.474-6.044-13.474-13.474s6.044-13.474,13.474-13.474c7.43,0,13.474,6.044,13.474,13.474
		S155.64,463.495,148.211,463.495z"/>
	<path style="fill:#AA6101;" d="M83.537,59.284h75.453c4.465,0,8.084-3.62,8.084-8.084s-3.62-8.084-8.084-8.084H83.537
		c-4.465,0-8.084,3.62-8.084,8.084S79.072,59.284,83.537,59.284z"/>
	<path style="fill:#AA6101;" d="M191.326,59.284h21.558c4.465,0,8.084-3.62,8.084-8.084s-3.62-8.084-8.084-8.084h-21.558
		c-4.465,0-8.084,3.62-8.084,8.084S186.862,59.284,191.326,59.284z"/>
</g>
<path style="fill:#FFA733;" d="M100.259,278.097c-7.886,0-14.817-4.151-18.538-11.104c-3.722-6.954-3.332-15.023,1.042-21.584
	l47.951-71.927c3.968-5.951,10.343-9.363,17.494-9.363s13.528,3.413,17.494,9.363l47.951,71.927
	c4.375,6.562,4.764,14.631,1.043,21.584c-3.722,6.953-10.652,11.104-18.538,11.104H100.259z"/>
<g>
	<path style="fill:#CC7400;" d="M148.211,194.021c-4.465,0-8.084,3.62-8.084,8.084v32.337c0,4.465,3.62,8.084,8.084,8.084
		c4.465,0,8.084-3.62,8.084-8.084v-32.337C156.295,197.641,152.675,194.021,148.211,194.021z"/>
	<path style="fill:#CC7400;" d="M155.68,252.906c-0.205-0.485-0.453-0.959-0.744-1.39c-0.302-0.442-0.636-0.862-1.013-1.229
		c-0.366-0.377-0.787-0.711-1.229-1.013c-0.431-0.291-0.905-0.539-1.39-0.733c-0.485-0.205-1.002-0.366-1.509-0.463
		c-1.046-0.216-2.123-0.216-3.169,0c-0.507,0.097-1.024,0.259-1.509,0.463c-0.485,0.194-0.959,0.442-1.39,0.733
		c-0.442,0.302-0.862,0.636-1.229,1.013c-0.377,0.366-0.711,0.787-1.013,1.229c-0.291,0.431-0.539,0.905-0.733,1.39
		c-0.205,0.485-0.366,1.002-0.463,1.509c-0.108,0.528-0.162,1.056-0.162,1.585c0,0.528,0.054,1.056,0.162,1.585
		c0.097,0.507,0.259,1.024,0.463,1.509c0.194,0.485,0.442,0.959,0.733,1.39c0.302,0.442,0.636,0.862,1.013,1.229
		c0.366,0.377,0.787,0.711,1.229,1.013c0.431,0.291,0.905,0.539,1.39,0.744c0.485,0.194,1.002,0.356,1.509,0.453
		c0.528,0.108,1.056,0.162,1.585,0.162c0.528,0,1.056-0.054,1.585-0.162c0.507-0.097,1.024-0.259,1.509-0.453
		c0.485-0.205,0.959-0.453,1.39-0.744c0.442-0.302,0.862-0.636,1.229-1.013c0.377-0.366,0.711-0.787,1.013-1.229
		c0.291-0.431,0.539-0.905,0.744-1.39c0.194-0.485,0.356-1.002,0.453-1.509c0.108-0.528,0.162-1.056,0.162-1.585
		c0-0.528-0.054-1.056-0.162-1.585C156.036,253.909,155.874,253.391,155.68,252.906z"/>
</g>
<path d="M477.402,210.235c-0.876-2.685-3.089-4.718-5.839-5.364c-2.749-0.645-5.636,0.191-7.615,2.206
	c-5.383,5.482-12.243,8.501-19.316,8.501c-16.345,0-29.642-15.716-29.642-35.032v-32.337c0-2.928-1.582-5.627-4.138-7.056
	c-2.555-1.427-5.683-1.365-8.178,0.168c-0.684,0.42-16.968,10.477-33.482,25.183c-23.255,20.707-35.045,39.938-35.045,57.158
	c0,40.119,32.639,72.758,72.758,72.758s72.758-32.639,72.758-72.758C479.663,219.352,478.902,214.834,477.402,210.235z
	 M406.905,280.253c-31.204,0-56.589-25.385-56.589-56.589c0-20.607,28.579-45.817,48.505-60.255v17.14
	c0,28.231,20.55,51.2,45.811,51.2c6.535,0,12.91-1.545,18.749-4.469C461.511,256.805,436.896,280.253,406.905,280.253z"/>
<path d="M171.983,169.296c-5.311-7.967-14.198-12.722-23.773-12.722c-9.575,0-18.461,4.756-23.773,12.722l-47.951,71.927
	c-5.856,8.784-6.399,20.023-1.417,29.329s14.634,15.089,25.19,15.089h95.902c10.557,0,20.209-5.782,25.19-15.089
	c4.981-9.308,4.438-20.547-1.417-29.329L171.983,169.296z M207.097,262.923c-2.196,4.101-6.283,6.55-10.935,6.55h-95.902
	c-4.652,0-8.74-2.449-10.935-6.55s-1.965-8.861,0.615-12.732l47.951-71.927c2.34-3.51,6.102-5.523,10.32-5.523
	c4.218,0,7.98,2.014,10.32,5.523l47.951,71.927C209.062,254.062,209.292,258.822,207.097,262.923z"/>
<path d="M406.905,118.568c-20.053,0-39.552,5.671-56.391,16.398c-15.667,9.981-28.39,23.885-36.922,40.316l-17.171,9.812V30.979
	C296.421,13.897,282.524,0,265.442,0H30.979C13.897,0,0,13.897,0,30.979v450.043C0,498.103,13.897,512,30.979,512h234.464
	c17.081,0,30.979-13.897,30.979-30.979v-218.79l17.171,9.812c8.533,16.431,21.256,30.335,36.922,40.316
	c16.839,10.727,36.338,16.398,56.391,16.398c57.95,0,105.095-47.145,105.095-105.095S464.855,118.568,406.905,118.568z
	 M280.253,481.021c0,8.166-6.644,14.81-14.81,14.81H30.979c-8.166,0-14.81-6.644-14.81-14.81v-76.811h264.084V481.021z
	 M280.253,388.042H16.168V102.4h173.255c4.465,0,8.084-3.62,8.084-8.084s-3.62-8.084-8.084-8.084H16.168V30.979
	c0-8.18,6.63-14.81,14.81-14.81h234.464c8.179,0,14.81,6.63,14.81,14.81v55.253h-58.807c-4.465,0-8.084,3.62-8.084,8.084
	s3.62,8.084,8.084,8.084h58.807v91.935l-39.042,22.31c-2.518,1.439-4.073,4.118-4.073,7.019s1.554,5.579,4.073,7.019l39.042,22.308
	V388.042z M406.905,312.589c-34.244,0-64.871-19.125-79.929-49.911c-0.712-1.455-1.844-2.663-3.251-3.467l-62.21-35.549
	l62.21-35.548c1.407-0.804,2.538-2.011,3.251-3.467c15.059-30.787,45.685-49.912,79.929-49.912
	c49.035,0,88.926,39.892,88.926,88.926S455.94,312.589,406.905,312.589z"/>
</svg>